<svg width="64" height="64" viewBox="0 0 64 64" fill="none" xmlns="http://www.w3.org/2000/svg">
<rect width="64" height="64" rx="18" fill="white"/>
<path d="M53.8842 29.9775C53.8842 30.2342 53.6762 30.442 53.4196 30.442H50.1449C40.9841 30.442 33.5579 23.0158 33.5579 13.8551V10.5804C33.5579 10.324 33.7659 10.116 34.0226 10.116H41.7709C48.461 10.116 53.8842 15.5392 53.8842 22.229V29.9775ZM53.8842 41.771C53.8842 48.4609 48.461 53.884 41.7709 53.884H34.0226C33.7659 53.884 33.5579 53.6762 33.5579 53.4196V50.1449C33.5579 40.9842 40.9841 33.558 50.1449 33.558H53.4196C53.6762 33.558 53.8842 33.766 53.8842 34.0224V41.771ZM30.4421 13.8551C30.4421 23.0158 23.0159 30.442 13.8551 30.442H10.5804C10.3238 30.442 10.116 30.2342 10.116 29.9775V22.229C10.116 15.5392 15.5391 10.116 22.2291 10.116H29.9777C30.2341 10.116 30.4421 10.324 30.4421 10.5804V13.8551ZM30.4421 53.4196C30.4421 53.6762 30.2341 53.884 29.9777 53.884H22.2291C15.5391 53.884 10.116 48.4609 10.116 41.771V34.0224C10.116 33.766 10.3238 33.558 10.5804 33.558H13.8551C23.0159 33.558 30.4421 40.9842 30.4421 50.1449V53.4196ZM41.7737 7H22.2263C13.8315 7 7 13.8317 7 22.229V41.7736C7 50.1709 13.8315 57 22.2263 57H32H41.7737C50.1685 57 57 50.1709 57 41.7736V22.229C57 13.8317 50.1685 7 41.7737 7Z" fill="#033147"/>
</svg>
